<svg xmlns="http://www.w3.org/2000/svg" version="1.1" xmlns:xlink="http://www.w3.org/1999/xlink" width="512" height="512" x="0" y="0" viewBox="0 0 64 64" style="enable-background:new 0 0 512 512" xml:space="preserve" class=""><g><path d="M11.125 12.139 4 38.744l11.24-11.24zM4.903 40.681l18.416 18.416.301-.301-7.778-29.054zM38.142 4.602l-.11-.411-25.16 6.734 4.004 14.943zM17.779 29.23l7.487 27.93 20.443-20.443zM46.231 34.77 38.744 6.84 18.291 27.293zM25.868 59.398l.11.411 25.15-6.744-4.004-14.933zM59.107 23.329 40.681 4.903l-.301.301 7.788 29.054zM48.77 36.496l4.115 15.345L60 25.256z" fill="#ffffff" opacity="1" data-original="#000000" class=""></path></g></svg>