<?xml version="1.0"?>
<svg xmlns="http://www.w3.org/2000/svg" viewBox="0 0 64 64" width="512" height="512"><g id="_16-tree" data-name="16-tree"><path d="M30,49v8l-4.5,2.75a2.428,2.428,0,0,1-1.06.25h-.52a1.917,1.917,0,0,1-.99-3.56L27,54Z" style="fill:#714226"/><path d="M44,58.08A1.912,1.912,0,0,1,42.08,60h-.52a2.428,2.428,0,0,1-1.06-.25L36,57V49l3,5,4.07,2.44A1.913,1.913,0,0,1,44,58.08Z" style="fill:#714226"/><path d="M42.47,30.6a3,3,0,0,0,.45.55L41,35l-5,5V35l2-2,1.57-2.36A2.974,2.974,0,0,0,41,31,2.942,2.942,0,0,0,42.47,30.6Z" style="fill:#714226"/><path d="M30,39H19l-4-3,.19-.25a2.992,2.992,0,0,0,1.67-1.89c.03-.01.05-.02.08-.03L17,34l3,2h7.86Z" style="fill:#714226"/><path d="M27,30V20a2.966,2.966,0,0,0,2.19-.97A3,3,0,0,0,31,20.82V29l5,6v8a3,3,0,0,0,0,6v8l3.13,2.42A1.954,1.954,0,0,1,40,61.04v.01A1.946,1.946,0,0,1,38.05,63H36.81a1.961,1.961,0,0,1-1.38-.57L33,60l-2.43,2.43a1.961,1.961,0,0,1-1.38.57H27.95A1.946,1.946,0,0,1,26,61.05v-.01a1.954,1.954,0,0,1,.87-1.62L30,57V39l-2.14-3L25,32l-2.93-1.17L20,30l-.06-.16a2.952,2.952,0,0,0,1.9-1.9L22,28Z" style="fill:#9a6948"/><path d="M19,39H30v6a2.987,2.987,0,0,0-5.19-2.03,2.984,2.984,0,0,0-5.63.05A1.1,1.1,0,0,0,19,43a3,3,0,0,0-2.24,4.99C14,47.89,14,46,14,46c-1.66,0-3-.34-3-2a1.993,1.993,0,0,1,2-2c-1.48-.53-2-1-2-3a3,3,0,0,0,3-3,2.949,2.949,0,0,0,1.19-.25L15,36Z" style="fill:#2f5224"/><path d="M25,32l2.86,4H21a1.993,1.993,0,0,1,2-2c-.55,0-1-1.34-1-3l.07-.17Z" style="fill:#2f5224"/><path d="M42,39a3,3,0,0,0-2.83,2.01A.915.915,0,0,0,39,41a3,3,0,0,0-2.82,2.02A1.1,1.1,0,0,0,36,43V40l5-5,1.92-3.85a2.976,2.976,0,0,0,4.08.08A2.965,2.965,0,0,0,49,32a2.986,2.986,0,0,0,5.02,2.2,3.008,3.008,0,0,0,.97,2A2.881,2.881,0,0,1,53,39h-.77a2.972,2.972,0,0,0-4.42-.03,2.984,2.984,0,0,0-5.63.05A1.1,1.1,0,0,0,42,39Z" style="fill:#2f5224"/><path d="M34,24a3,3,0,0,0,3,3,2.955,2.955,0,0,0,1.32-.32A2.955,2.955,0,0,0,38,28a3,3,0,0,0,1.57,2.64L38,33l-2,2-5-6V20.82A2.772,2.772,0,0,0,32,21a2.9,2.9,0,0,0,2.01-.8,2.921,2.921,0,0,0,.77,1.8A2.974,2.974,0,0,0,34,24Z" style="fill:#2f5224"/><path d="M18,21c0-2.07.78-3.77,1.79-3.98a2.967,2.967,0,0,0,4.23.18A3,3,0,0,0,27,20V30l-5-2-.16-.06A2.653,2.653,0,0,0,22,27a2.94,2.94,0,0,0-.42-1.5A2.94,2.94,0,0,0,22,24a3,3,0,0,0-3-3,2.9,2.9,0,0,0-.94.16Z" style="fill:#2f5224"/><path d="M54.99,36.2a3.008,3.008,0,0,1-.97-2A2.986,2.986,0,0,1,49,32a2.965,2.965,0,0,1-2-.77A2.94,2.94,0,0,0,48,29c0-.06-.02-.13-.02-.19A2.887,2.887,0,0,0,49,29a2.994,2.994,0,0,0,2.78-4.12A2.977,2.977,0,0,0,53.83,23H54a3.232,3.232,0,0,1,3-2,3,3,0,0,1,3,3,3.193,3.193,0,0,1-.09.7A2.986,2.986,0,0,1,61,27a3.193,3.193,0,0,1-.09.7,2.976,2.976,0,0,1-1.13,5.18A2.994,2.994,0,0,1,57,37,2.886,2.886,0,0,1,54.99,36.2Z" style="fill:#4e9943"/><path d="M52.23,39A2.965,2.965,0,0,1,53,41a3,3,0,0,1-3,3,3,3,0,0,1-3,3,3.1,3.1,0,0,1-.69-.08A3,3,0,0,0,44,42a2.966,2.966,0,0,0-2.19.97,2.982,2.982,0,0,0-2.64-1.96A3,3,0,0,1,42,39a1.1,1.1,0,0,1,.18.02,2.984,2.984,0,0,1,5.63-.05,2.972,2.972,0,0,1,4.42.03Z" style="fill:#44853b"/><path d="M16.76,47.99A3,3,0,0,1,19,43a1.1,1.1,0,0,1,.18.02,2.984,2.984,0,0,1,5.63-.05A2.994,2.994,0,1,1,27,48a2.993,2.993,0,0,1-5.98.2,2.971,2.971,0,0,1-4.26-.21Z" style="fill:#4f9a44"/><path d="M53.83,23a2.977,2.977,0,0,1-2.05,1.88A2.994,2.994,0,0,1,49,29a2.887,2.887,0,0,1-1.02-.19c0,.06.02.13.02.19a2.991,2.991,0,0,1-5.08,2.15,3,3,0,0,1-.45-.55A2.942,2.942,0,0,1,41,31a2.977,2.977,0,0,1-2.68-4.32A2.955,2.955,0,0,1,37,27a2.987,2.987,0,0,1-2.22-5,2.921,2.921,0,0,1-.77-1.8,2.942,2.942,0,0,0,.81-1.22A1.1,1.1,0,0,0,35,19a3,3,0,0,0,2.82-2.02A1.1,1.1,0,0,0,38,17a2.995,2.995,0,0,0,.94-5.84L39,11V10a3,3,0,0,1,6,0,3.182,3.182,0,0,1-.16.93,2.993,2.993,0,0,1,4.94,3.19,2.969,2.969,0,0,1,1.42,4.9A2.992,2.992,0,0,1,53.83,23Z" style="fill:#44853b"/><path d="M47,45a2.991,2.991,0,0,1-3,3,2.993,2.993,0,0,1-5.98.2A2.994,2.994,0,1,1,36,43a1.1,1.1,0,0,1,.18.02A3,3,0,0,1,39,41a.915.915,0,0,1,.17.01,2.982,2.982,0,0,1,2.64,1.96A2.987,2.987,0,0,1,47,45Z" style="fill:#8ee05b"/><path d="M16.86,33.86a2.992,2.992,0,0,1-1.67,1.89A2.949,2.949,0,0,1,14,36a3,3,0,0,1-6,0,3,3,0,0,1-3-3,3,3,0,0,1,0-6,3,3,0,0,1,3-3,2.942,2.942,0,0,1,1.47.4,2.952,2.952,0,0,1,1.75-1.28,2.993,2.993,0,1,1,5.76-1.32,2.952,2.952,0,0,1,1.08-.64A2.9,2.9,0,0,1,19,21a3,3,0,0,1,3,3,2.94,2.94,0,0,1-.42,1.5A2.94,2.94,0,0,1,22,27a2.653,2.653,0,0,1-.16.94,2.952,2.952,0,0,1-1.9,1.9A2.653,2.653,0,0,1,19,30c-.06,0-.13-.02-.19-.02A2.887,2.887,0,0,1,19,31a2.979,2.979,0,0,1-2.06,2.83C16.91,33.84,16.89,33.85,16.86,33.86Z" style="fill:#7bc24f"/><path d="M34.01,20.2A2.9,2.9,0,0,1,32,21a2.772,2.772,0,0,1-1-.18,3,3,0,0,1-1.81-1.79,2.977,2.977,0,0,1-5.17-1.83A3,3,0,0,1,19,15c0-.06.02-.13.02-.19A2.887,2.887,0,0,1,18,15a3,3,0,0,1,0-6,3.182,3.182,0,0,1,.93.16A2.989,2.989,0,0,1,23.02,4.8,3,3,0,0,1,26,2a2.942,2.942,0,0,1,1.47.4A3,3,0,0,1,33,4a2.994,2.994,0,0,1,2.78,4.12A2.974,2.974,0,0,1,38,11a2.653,2.653,0,0,1,.94.16A2.995,2.995,0,0,1,38,17a1.1,1.1,0,0,1-.18-.02A3,3,0,0,1,35,19a1.1,1.1,0,0,1-.18-.02A2.942,2.942,0,0,1,34.01,20.2Z" style="fill:#7bc24f"/><path d="M54.733,32a2.673,2.673,0,0,0-.249-1.12A3.065,3.065,0,0,0,57,28a2.866,2.866,0,0,0-1.235-2.3,2.693,2.693,0,0,0-1.134-3,2.824,2.824,0,0,0,.1-.7c0-.027-.008-.053-.009-.08A2.781,2.781,0,0,0,54,23h-.17a2.977,2.977,0,0,1-2.05,1.88A2.994,2.994,0,0,1,49,29a2.887,2.887,0,0,1-1.02-.19c0,.06.02.13.02.19a2.94,2.94,0,0,1-1,2.23A2.965,2.965,0,0,0,49,32a2.986,2.986,0,0,0,2.687,2.969A3.156,3.156,0,0,0,54.733,32Z" style="fill:#44853b"/><path d="M46.31,43.92A3,3,0,0,1,44,45a2.993,2.993,0,0,1-5.98.2,2.966,2.966,0,0,1-4.605-.7,2.985,2.985,0,0,0,4.605,3.7A2.993,2.993,0,0,0,44,48a2.981,2.981,0,0,0,2.592-4.487A2.949,2.949,0,0,1,46.31,43.92Z" style="fill:#7bc24f"/><path d="M29.31,43.92A3,3,0,0,1,27,45a2.993,2.993,0,0,1-5.98.2,2.966,2.966,0,0,1-4.605-.7,2.985,2.985,0,0,0,4.605,3.7A2.993,2.993,0,0,0,27,48a2.981,2.981,0,0,0,2.592-4.487A2.949,2.949,0,0,1,29.31,43.92Z" style="fill:#44853b"/><path d="M38.293,35.707,39,35l.724-1.447A1,1,0,0,1,40.618,33H42l.923-1.85a3,3,0,0,1-.45-.55A2.942,2.942,0,0,1,41,31a2.974,2.974,0,0,1-1.43-.36L38,33l-2,2v5l2-2V36.414A1,1,0,0,1,38.293,35.707Z" style="fill:#531a0f"/><path d="M26.214,36a1.993,1.993,0,0,1-1.989,2H19.414a1,1,0,0,1-.707-.293l-.48-.48a2,2,0,0,1-.222-2.557L17,34l-.06-.17c-.03.01-.05.02-.08.03a2.992,2.992,0,0,1-1.67,1.89L15,36l4,3H30l-2.14-3Z" style="fill:#531a0f"/><path d="M28,55.382a1,1,0,0,1-.553.894l-4,2a1,1,0,0,1-1.4-.589A1.9,1.9,0,0,0,22,58.08,1.92,1.92,0,0,0,23.92,60h.52a2.428,2.428,0,0,0,1.06-.25L30,57V49l-2,3.333Z" style="fill:#531a0f"/><path d="M42.553,58.276l-4-2A1,1,0,0,1,38,55.382V52.333L36,49v8l4.5,2.75a2.428,2.428,0,0,0,1.06.25h.52A1.912,1.912,0,0,0,44,58.08a1.9,1.9,0,0,0-.051-.393A1,1,0,0,1,42.553,58.276Z" style="fill:#531a0f"/><path d="M22.07,30.83,25,32l2.86,4L30,39V57a2,2,0,0,0,2-2V37.667a2,2,0,0,0-.4-1.2l-2.2-2.934a2,2,0,0,1-.4-1.2V25a2,2,0,0,1,2-2V20.82a3,3,0,0,1-1.81-1.79A2.966,2.966,0,0,1,27,20V31l-3.81-1.524a.98.98,0,0,1-.563-1.225L22,28l-.16-.06a2.952,2.952,0,0,1-1.9,1.9L20,30Z" style="fill:#6f3529"/><path d="M31.586,32.586l1.828,1.828A2,2,0,0,1,34,35.828v7.948A2.981,2.981,0,0,1,36,43V35l-5-6v2.172A2,2,0,0,0,31.586,32.586Z" style="fill:#af7a58"/><path d="M36,51V49a3,3,0,0,1-3-3v2A3,3,0,0,0,36,51Z" style="fill:#6f3529"/><path d="M39.995,61H38.828a2,2,0,0,1-1.414-.586l-1-1a4.828,4.828,0,0,0-6.828,0l-1,1A2,2,0,0,1,27.172,61H26.005c0,.014,0,.026,0,.04v.01A1.946,1.946,0,0,0,27.95,63h1.24a1.961,1.961,0,0,0,1.38-.57L33,60l2.43,2.43a1.961,1.961,0,0,0,1.38.57h1.24A1.946,1.946,0,0,0,40,61.05v-.01C40,61.026,39.995,61.014,39.995,61Z" style="fill:#6f3529"/><path d="M38,11a2.974,2.974,0,0,0-2.22-2.88A2.994,2.994,0,0,0,33,4a3,3,0,0,0-5.53-1.6A2.942,2.942,0,0,0,26,2a3,3,0,0,0-2.98,2.8,2.981,2.981,0,0,0-4.236,4.19A2.963,2.963,0,0,1,23.02,8.8,3,3,0,0,1,26,6a2.942,2.942,0,0,1,1.47.4A3,3,0,0,1,33,8a3,3,0,0,1,3,3,2.915,2.915,0,0,1-.163.929A2.988,2.988,0,0,1,38,11Z" style="fill:#8ee05b"/><path d="M38.94,11.16A2.653,2.653,0,0,0,38,11a3.049,3.049,0,0,0-.034-.409A2.542,2.542,0,0,1,36.577,11a1,1,0,0,1-.145-.015A2.414,2.414,0,0,1,34.154,12.5a1.032,1.032,0,0,1-.146-.015,2.2,2.2,0,0,1-.654.915,2.444,2.444,0,0,1-1.623.6,2.392,2.392,0,0,1-.808-.135,2.348,2.348,0,0,1-1.462-1.343,2.48,2.48,0,0,1-1.769.728,2.351,2.351,0,0,1-2.407-2.1,2.507,2.507,0,0,1-1.631.6,2.48,2.48,0,0,1-1.785-.735A2.141,2.141,0,0,1,21.231,9.5c0-.045.016-.1.016-.143a2.5,2.5,0,0,1-2.786-.794,3.118,3.118,0,0,0,.469.6A3.182,3.182,0,0,0,18,9a3,3,0,0,0,0,6,2.887,2.887,0,0,0,1.02-.19c0,.06-.02.13-.02.19a2.986,2.986,0,0,0,5.02,2.2,2.977,2.977,0,0,0,5.17,1.83A3,3,0,0,0,31,20.82,2.772,2.772,0,0,0,32,21a2.9,2.9,0,0,0,2.01-.8,2.942,2.942,0,0,0,.81-1.22A1.1,1.1,0,0,0,35,19a3,3,0,0,0,2.82-2.02A1.1,1.1,0,0,0,38,17a2.995,2.995,0,0,0,.94-5.84Z" style="fill:#5cb34f"/><path d="M38,13a1.1,1.1,0,0,1-.18-.02A3,3,0,0,1,35,15a1.1,1.1,0,0,1-.18-.02,2.942,2.942,0,0,1-.81,1.22A2.9,2.9,0,0,1,32,17a2.772,2.772,0,0,1-1-.18,3,3,0,0,1-1.81-1.79,2.977,2.977,0,0,1-5.17-1.83A3,3,0,0,1,19,11c0-.06.02-.13.02-.19A2.887,2.887,0,0,1,18,11a2.982,2.982,0,0,1-2.224-1A2.99,2.99,0,0,0,18,15a2.887,2.887,0,0,0,1.02-.19c0,.06-.02.13-.02.19a2.986,2.986,0,0,0,5.02,2.2,2.977,2.977,0,0,0,5.17,1.83A3,3,0,0,0,31,20.82,2.772,2.772,0,0,0,32,21a2.9,2.9,0,0,0,2.01-.8,2.942,2.942,0,0,0,.81-1.22A1.1,1.1,0,0,0,35,19a3,3,0,0,0,2.82-2.02A1.1,1.1,0,0,0,38,17a3,3,0,0,0,3-3,2.966,2.966,0,0,0-.776-2A2.982,2.982,0,0,1,38,13Z" style="fill:#4f9a44"/><path d="M9.47,27.4a2.952,2.952,0,0,1,1.75-1.28,2.993,2.993,0,1,1,5.76-1.32,2.952,2.952,0,0,1,1.08-.64A2.9,2.9,0,0,1,19,24a2.985,2.985,0,0,1,2.583,1.5A2.942,2.942,0,0,0,22,24a3,3,0,0,0-3-3,2.9,2.9,0,0,0-.94.16,2.952,2.952,0,0,0-1.08.64,2.993,2.993,0,1,0-5.76,1.32A2.952,2.952,0,0,0,9.47,24.4,2.942,2.942,0,0,0,8,24a3,3,0,0,0-3,2.957,1.389,1.389,0,0,0,.166.16,2.217,2.217,0,0,0,1.269.331A2.923,2.923,0,0,1,9.47,27.4Z" style="fill:#8ee05b"/><path d="M16.016,29.761a3.389,3.389,0,0,1-.045,1.49,2.07,2.07,0,0,1-1.429,1.185,4.059,4.059,0,0,1-1.1.127c-.179,0-.357-.011-.536-.021-.234-.013-.216-.022-.318.168a2.221,2.221,0,0,1-1.331,1.084,3.924,3.924,0,0,1-2.055.012,4.282,4.282,0,0,1-1.937-.979,2.491,2.491,0,0,1-.844-1.818,5.3,5.3,0,0,1-3.083-.56,2.8,2.8,0,0,1-1.186-1.341A2.964,2.964,0,0,0,5,33a3,3,0,0,0,3,3,3,3,0,0,0,6,0,2.949,2.949,0,0,0,1.19-.25,2.992,2.992,0,0,0,1.67-1.89c.03-.01.05-.02.08-.03A2.979,2.979,0,0,0,19,31a2.892,2.892,0,0,0-.189-1.017c-.384.017-1.243.151-1.358.157A2.127,2.127,0,0,1,16.016,29.761Z" style="fill:#4f9a44"/><path d="M21.84,27.94A2.653,2.653,0,0,0,22,27c0-.088-.011-.173-.019-.259a2.429,2.429,0,0,1-2.649.954c-.311-.08-1.039-.325-1.106-.683a1.416,1.416,0,0,1-1.451,1.147,4.11,4.11,0,0,1-1.914-.638,2.025,2.025,0,0,1-3.578,1.584,1.413,1.413,0,0,1-1.06.982A3.025,3.025,0,0,1,8.72,30a2.486,2.486,0,0,1-1.548-.964A2.919,2.919,0,0,1,6.9,27.419a2.547,2.547,0,0,1-1.731-.3A1.389,1.389,0,0,1,5,26.957c0,.015,0,.028,0,.043a2.986,2.986,0,0,0-2.851,2.108,2.8,2.8,0,0,0,1.186,1.341,5.3,5.3,0,0,0,3.083.56,2.491,2.491,0,0,0,.844,1.818,4.282,4.282,0,0,0,1.937.979,3.924,3.924,0,0,0,2.055-.012,2.221,2.221,0,0,0,1.331-1.084c.1-.19.084-.181.318-.168.179.01.357.021.536.021a4.059,4.059,0,0,0,1.1-.127,2.07,2.07,0,0,0,1.429-1.185,3.389,3.389,0,0,0,.045-1.49,2.127,2.127,0,0,0,1.437.379c.115-.006.974-.14,1.358-.157v0l.025,0c.091,0,.159,0,.165.017a2.653,2.653,0,0,0,.94-.16A2.952,2.952,0,0,0,21.84,27.94Z" style="fill:#5cb34f"/><path d="M49.162,24.411c-.247.2-.247.782-.368,1.064A3.305,3.305,0,0,1,47.246,27.3a3.987,3.987,0,0,1-2.105.173A3.411,3.411,0,0,1,43,26.658a3.243,3.243,0,0,1-.634-2.419,2.635,2.635,0,0,1-1.953-3.04,7.984,7.984,0,0,0,2.229-.959,4.449,4.449,0,0,0,1.527-1.466,4.077,4.077,0,0,0,.3-3.052,10.717,10.717,0,0,0-1.338-2.834,1.37,1.37,0,0,1-.215-.485,1.787,1.787,0,0,1,.189-.828,3.478,3.478,0,0,0-.751-3.28,5.287,5.287,0,0,0-1.335-1.116A2.986,2.986,0,0,0,39,10v1l-.06.16A2.995,2.995,0,0,1,38,17a1.1,1.1,0,0,1-.18-.02A3,3,0,0,1,35,19a1.1,1.1,0,0,1-.18-.02,2.942,2.942,0,0,1-.81,1.22,2.921,2.921,0,0,0,.77,1.8,2.982,2.982,0,0,0,3.54,4.68A2.955,2.955,0,0,0,38,28a2.993,2.993,0,0,0,3,3,2.942,2.942,0,0,0,1.47-.4,3,3,0,0,0,.45.55A3,3,0,0,0,48,29c0-.06-.02-.13-.02-.19A2.887,2.887,0,0,0,49,29a3,3,0,0,0,3-3,2.961,2.961,0,0,0-.2-1.064c-.359-.058-.716-.13-1.067-.219C50.348,24.621,49.473,24.157,49.162,24.411Z" style="fill:#3b7832"/><path d="M51.2,19.02a2.969,2.969,0,0,0-1.42-4.9,2.985,2.985,0,0,0-4.842-3.274,9.544,9.544,0,0,1-.61,1.825,8.971,8.971,0,0,1,2.388,1.335,4.294,4.294,0,0,1,1.49,2.25,4.806,4.806,0,0,1-.335,2.866,5.414,5.414,0,0,1,1.4,5.24c.37-.114,1.115.268,1.461.355s.708.161,1.067.219c-.007-.018-.01-.038-.017-.056a2.982,2.982,0,0,0-.58-5.86Z" style="fill:#52a147"/></g></svg>
